<svg width="24" height="24" viewBox="0 0 24 24" xmlns="http://www.w3.org/2000/svg">
  <defs>
    <linearGradient id="archGrad" x1="0%" y1="0%" x2="100%" y2="100%">
      <stop offset="0%" style="stop-color:#667EEA;stop-opacity:1" />
      <stop offset="100%" style="stop-color:#764BA2;stop-opacity:1" />
    </linearGradient>
  </defs>
  
  <!-- Building blocks -->
  <rect x="2" y="8" width="6" height="14" fill="url(#archGrad)" rx="1"/>
  <rect x="9" y="4" width="6" height="18" fill="url(#archGrad)" rx="1"/>
  <rect x="16" y="6" width="6" height="16" fill="url(#archGrad)" rx="1"/>
  
  <!-- Windows -->
  <rect x="3" y="10" width="4" height="2" fill="white" opacity="0.8"/>
  <rect x="3" y="14" width="4" height="2" fill="white" opacity="0.8"/>
  <rect x="3" y="18" width="4" height="2" fill="white" opacity="0.8"/>
  
  <rect x="10" y="6" width="4" height="2" fill="white" opacity="0.8"/>
  <rect x="10" y="10" width="4" height="2" fill="white" opacity="0.8"/>
  <rect x="10" y="14" width="4" height="2" fill="white" opacity="0.8"/>
  <rect x="10" y="18" width="4" height="2" fill="white" opacity="0.8"/>
  
  <rect x="17" y="8" width="4" height="2" fill="white" opacity="0.8"/>
  <rect x="17" y="12" width="4" height="2" fill="white" opacity="0.8"/>
  <rect x="17" y="16" width="4" height="2" fill="white" opacity="0.8"/>
</svg>
